# xmcd
#
# Track frame offsets: 
#        182
#        11222
#        21940
#        32480
#        46217
#        58220
#        69027
#        83935
#        96707
#        107257
#        118290
#        129065
#        144257
#        156002
#        172780
#        183555
#        195097
#        206330
#        216537
#        228827
#
# Disc length: 3222 seconds
#
# Revision: 3
# Processed by: cddbd v1.5.2PL0 Copyright (c) Steve Scherf et al.
# Submitted via: ExactAudioCopy v0.99pb5
#
DISCID=060c9414
DTITLE=Various Artist - The Classic Soul Years - 1964
DYEAR=1989
DGENRE=Soul
TTITLE0=Tams - Hey girl don`t bother me
TTITLE1=Aretha Franklin - Soulville
TTITLE2=Major Lance - Um, um, um, um, um, um
TTITLE3=King Curtis - Soul serenade
TTITLE4=Bessie Banks - Go now
TTITLE5=Timmy Shaw - Gonna send you back to Georgia
TTITLE6=Jackie Ross - Selfish one
TTITLE7=Tommy Hunt - I just don't know what to do with myself
TTITLE8=Inez and Charlie Foxx - Hurt by love
TTITLE9=Exciters - Do-wah-diddy
TTITLE10=Garnet Mimms - A quiet place
TTITLE11=Etta James - Loving you more everyday
TTITLE12=Chuck Jackson - Beg me
TTITLE13=Mitty Collier - I had a talk with my man
TTITLE14=Hank Jacobs - So far away
TTITLE15=Maxine Brown - Oh no not my baby
TTITLE16=Impressions - Keep on pushing
TTITLE17=Shirelles - Sha la la
TTITLE18=Soul Sisters - I can't stand it
TTITLE19=Irma Thomas - Time is on my side
EXTD=
EXTT0=
EXTT1=
EXTT2=
EXTT3=
EXTT4=
EXTT5=
EXTT6=
EXTT7=
EXTT8=
EXTT9=
EXTT10=
EXTT11=
EXTT12=
EXTT13=
EXTT14=
EXTT15=
EXTT16=
EXTT17=
EXTT18=
EXTT19=
PLAYORDER=
